/* XPM */
static char *cRTED_xpm[] = {
"16 16 7 1",
"0	c #A4A2A2",
"1	c #0000FF",
"2	c #242424",
"3	c #6D6D6D",
"4	c #5C8CDE",
"5	c #494949",
"6	c #000000",
"3300000000003033",
"3003111111000003",
"0031222222000000",
"0312300000000000",
"0123000200111123",
"0120000230111230",
"3120000250522300",
"3120000200000000",
"3120000200000000",
"3120032200111300",
"0120326500111130",
"0123055300222223",
"0311300000000000",
"0031111111000000",
"3003322222000003",
"3300000000003033"
};
